<svg id="Capa_1" enable-background="new 0 0 512 512" height="512" viewBox="0 0 512 512" width="512" xmlns="http://www.w3.org/2000/svg"><g><g><path d="m275.457 467.547h-23v19.833l9.833 14.364h4.26c6.768-3.761 11.376-10.987 11.376-19.239v-12.649z" fill="#5291d9"/><path d="m255.175 482.505v-12.649l2.77-2.31h-21.238l-2.77 2.31v12.649c0 12.097 9.897 21.995 21.994 21.995 3.845 0 7.466-1.003 10.619-2.755-6.768-3.762-11.375-10.987-11.375-19.24z" fill="#0972d0"/><path d="m292.124 437.381 5.326-2.361v-34.662l-4.493-2.977h-74l-4.544 2.977v34.662l4.211 2.361z" fill="#dbedff"/><path d="m255.932 400.358 4.544-2.977h-41.519l-4.544 2.977v34.662l4.211 2.361h41.518l-4.21-2.361z" fill="#b5dcff"/><path d="m255.932 435.02-1.891 2.444v16.833l4.25 8.833 6.5 5.25 6.423 1.508h6.094c11.079 0 20.143-9.064 20.143-20.143v-14.725z" fill="#b5dcff"/><path d="m255.932 449.745v-14.725h-41.519v14.726c0 11.079 9.064 20.143 20.143 20.143h41.519c-11.079-.001-20.143-9.065-20.143-20.144z" fill="#8bcaff"/><path d="m277.864 83.12h-18.819l-52.187 31.26-32.734 42.433v77.567l17.734 50.833 41.599 36.833 7.167 17.5v44.5l6.833 13 12.446 5.462h27.67c13.122 0 23.76-10.638 23.76-23.76v-27.807c0-19.279 8.856-37.354 23.717-49.635 27.584-22.794 45.165-57.262 45.165-95.841 0-61.154-44.173-111.985-102.351-122.345z" fill="#ffe02f"/><path d="m244.271 378.75v-27.811c0-18.968-8.327-37.092-23.034-49.072-27.977-22.787-45.847-57.504-45.848-96.4-.001-60.978 44.451-111.965 102.475-122.347-6.83-1.216-13.85-1.882-21.017-1.934-68.729-.496-125.199 55.55-125.199 124.281 0 38.896 17.871 73.613 45.848 96.4 14.707 11.979 23.034 30.103 23.034 49.072v27.811c0 13.122 10.638 23.76 23.76 23.76h43.74c-13.122-.001-23.759-10.638-23.759-23.76z" fill="#fbc700"/><g><g><path d="m265.472 123.883h-4.754l-6.123 8.928v15.072l5.534 7.772 5.343.926c5.643-3.269 9.449-9.358 9.449-16.349 0-6.99-3.806-13.08-9.449-16.349z" fill="#5291d9"/><path d="m256.023 140.232c0-6.991 3.806-13.08 9.449-16.349-2.782-1.612-6.003-2.549-9.449-2.549-10.437 0-18.898 8.461-18.898 18.898s8.461 18.898 18.898 18.898c3.446 0 6.667-.937 9.449-2.549-5.643-3.268-9.449-9.358-9.449-16.349z" fill="#0067c7"/></g><g><path d="m265.472 254.535h-4.754l-6.123 8.928v15.072l5.534 7.772 5.343.926c5.643-3.269 9.449-9.358 9.449-16.349s-3.806-13.081-9.449-16.349z" fill="#5291d9"/><path d="m256.023 270.884c0-6.991 3.806-13.08 9.449-16.349-2.782-1.612-6.003-2.549-9.449-2.549-10.437 0-18.898 8.461-18.898 18.898s8.461 18.898 18.898 18.898c3.446 0 6.667-.937 9.449-2.549-5.643-3.269-9.449-9.359-9.449-16.349z" fill="#0067c7"/></g><g><path d="m322.053 221.681h-4.754l-6.123 8.928v15.072l5.534 7.772 5.343.926c5.643-3.269 9.449-9.358 9.449-16.349 0-6.99-3.806-13.08-9.449-16.349z" fill="#5291d9"/><path d="m312.604 238.03c0-6.991 3.806-13.08 9.449-16.349-2.782-1.612-6.003-2.549-9.449-2.549-10.437 0-18.898 8.461-18.898 18.898s8.461 18.898 18.898 18.898c3.446 0 6.667-.937 9.449-2.549-5.643-3.268-9.449-9.358-9.449-16.349z" fill="#0067c7"/></g><g><path d="m208.708 221.681h-4.754l-6.123 8.928v15.072l5.534 7.772 5.343.926c5.643-3.269 9.449-9.358 9.449-16.349 0-6.99-3.806-13.08-9.449-16.349z" fill="#5291d9"/><path d="m199.259 238.03c0-6.991 3.806-13.08 9.449-16.349-2.782-1.612-6.003-2.549-9.449-2.549-10.437 0-18.898 8.461-18.898 18.898s8.461 18.898 18.898 18.898c3.446 0 6.667-.937 9.449-2.549-5.643-3.268-9.449-9.358-9.449-16.349z" fill="#0067c7"/></g><g><path d="m322.053 156.366h-4.754l-6.123 8.928v15.072l5.534 7.772 5.343.926c5.643-3.269 9.449-9.358 9.449-16.349s-3.806-13.08-9.449-16.349z" fill="#5291d9"/><path d="m312.604 172.715c0-6.991 3.806-13.08 9.449-16.349-2.782-1.612-6.003-2.549-9.449-2.549-10.437 0-18.898 8.461-18.898 18.898s8.461 18.898 18.898 18.898c3.446 0 6.667-.937 9.449-2.549-5.643-3.269-9.449-9.358-9.449-16.349z" fill="#0067c7"/></g><g><path d="m208.708 156.366h-4.754l-6.123 8.928v15.072l5.534 7.772 5.343.926c5.643-3.269 9.449-9.358 9.449-16.349s-3.806-13.08-9.449-16.349z" fill="#5291d9"/><path d="m199.259 172.715c0-6.991 3.806-13.08 9.449-16.349-2.782-1.612-6.003-2.549-9.449-2.549-10.437 0-18.898 8.461-18.898 18.898s8.461 18.898 18.898 18.898c3.446 0 6.667-.937 9.449-2.549-5.643-3.269-9.449-9.358-9.449-16.349z" fill="#0067c7"/></g></g></g><g><path d="m453.966 197.966h-31.024c-4.142 0-7.5 3.358-7.5 7.5s3.358 7.5 7.5 7.5h31.024c4.142 0 7.5-3.358 7.5-7.5s-3.358-7.5-7.5-7.5z"/><path d="m89.058 197.966h-31.024c-4.142 0-7.5 3.358-7.5 7.5s3.358 7.5 7.5 7.5h31.024c4.142 0 7.5-3.358 7.5-7.5s-3.358-7.5-7.5-7.5z"/><path d="m390.68 60.18-21.938 21.938c-2.929 2.929-2.929 7.678 0 10.606 2.928 2.929 7.677 2.929 10.606 0l21.938-21.938c2.929-2.929 2.929-7.678 0-10.606-2.928-2.93-7.677-2.929-10.606 0z"/><path d="m132.651 318.208-21.938 21.938c-2.929 2.929-2.929 7.678 0 10.606 2.929 2.929 7.678 2.929 10.606 0l21.938-21.938c2.929-2.929 2.929-7.678 0-10.606-2.928-2.928-7.677-2.928-10.606 0z"/><path d="m263.5 38.524v-31.024c0-4.142-3.358-7.5-7.5-7.5s-7.5 3.358-7.5 7.5v31.024c0 4.142 3.358 7.5 7.5 7.5s7.5-3.357 7.5-7.5z"/><path d="m132.651 92.724c2.929 2.929 7.678 2.929 10.606 0 2.929-2.929 2.929-7.678 0-10.606l-21.937-21.938c-2.929-2.929-7.678-2.929-10.606 0-2.929 2.929-2.929 7.678 0 10.606z"/><path d="m379.349 318.208c-2.929-2.929-7.678-2.929-10.606 0-2.929 2.929-2.929 7.678 0 10.606l21.938 21.938c2.929 2.929 7.678 2.929 10.606 0 2.929-2.929 2.929-7.678 0-10.606z"/><path d="m229.511 140.141c0 2.134.26 4.208.739 6.197l-12.569 7.262c-1.5-1.42-3.175-2.678-5.01-3.737-12.649-7.303-28.881-2.952-36.185 9.696-7.325 12.686-2.993 28.861 9.695 36.186 1.835 1.06 3.764 1.873 5.745 2.462v14.51c-1.981.589-3.909 1.411-5.745 2.471-12.687 7.324-17.023 23.498-9.696 36.187 7.303 12.65 23.503 17.018 36.184 9.696 1.837-1.061 3.514-2.32 5.016-3.742l12.566 7.256c-.48 1.992-.742 4.069-.742 6.207 0 14.606 11.883 26.49 26.489 26.49s26.489-11.883 26.489-26.49c0-2.138-.261-4.215-.742-6.207l12.566-7.256c1.502 1.422 3.178 2.681 5.015 3.741 12.658 7.308 28.887 2.945 36.186-9.696 7.325-12.687 2.993-28.862-9.696-36.187-1.836-1.06-3.763-1.882-5.744-2.471v-14.519c1.965-.58 3.894-1.385 5.744-2.453 12.687-7.324 17.023-23.499 9.696-36.187-7.312-12.665-23.518-17.009-36.185-9.696-1.839 1.062-3.517 2.322-5.02 3.746l-12.564-7.251c.482-1.995.744-4.075.744-6.217 0-14.606-11.883-26.49-26.489-26.49s-26.487 11.885-26.487 26.492zm26.489 26.489c7.057 0 13.473-2.779 18.225-7.294l12.597 7.27c-1.599 6.63-.616 13.507 2.811 19.442 3.53 6.115 9.151 10.277 15.441 12.134v14.544c-6.546 1.929-12.014 6.221-15.441 12.158-3.427 5.936-4.411 12.816-2.81 19.448l-12.591 7.27c-4.753-4.519-11.172-7.301-18.232-7.301s-13.479 2.782-18.232 7.301l-12.591-7.271c1.601-6.632.618-13.511-2.81-19.448-3.427-5.937-8.895-10.229-15.441-12.158v-14.522c6.547-1.929 12.014-6.22 15.441-12.156 3.429-5.938 4.411-12.821 2.808-19.455l12.585-7.271c4.754 4.524 11.176 7.309 18.24 7.309zm-66.524.429c3.168-5.485 10.207-7.375 15.695-4.207 5.507 3.18 7.387 10.187 4.206 15.696-3.177 5.503-10.191 7.385-15.696 4.206-5.506-3.178-7.385-10.187-4.205-15.695zm15.694 81.021c-5.483 3.167-12.528 1.279-15.694-4.206-3.179-5.507-1.304-12.515 4.205-15.695 5.507-3.179 12.516-1.299 15.695 4.206 3.18 5.506 1.304 12.515-4.206 15.695zm50.83 34.201c-6.335 0-11.489-5.154-11.489-11.49s5.154-11.49 11.489-11.49 11.489 5.154 11.489 11.49-5.154 11.49-11.489 11.49zm66.524-38.407c-3.168 5.487-10.209 7.374-15.696 4.206-5.507-3.179-7.385-10.187-4.205-15.695 3.179-5.506 10.187-7.387 15.695-4.207 0 0 .001 0 .001.001 5.506 3.178 7.385 10.187 4.205 15.695zm-15.694-81.021c5.481-3.165 12.527-1.28 15.694 4.206 3.18 5.508 1.301 12.517-4.205 15.695-5.488 3.167-12.528 1.281-15.696-4.206-3.179-5.507-1.303-12.516 4.207-15.695zm-50.83-34.202c6.335 0 11.489 5.154 11.489 11.49s-5.154 11.49-11.489 11.49-11.489-5.154-11.489-11.49 5.154-11.49 11.489-11.49z"/><path d="m371.624 189.013c.528 3.747 3.739 6.454 7.417 6.454.348 0 .701-.024 1.056-.074 4.102-.578 6.958-4.372 6.38-8.474-8.142-57.763-54.169-103.791-111.931-111.933-4.103-.572-7.895 2.279-8.474 6.38-.578 4.102 2.278 7.896 6.38 8.474 51.178 7.214 91.959 47.995 99.172 99.173z"/><path d="m380.104 215.54c-4.101-.574-7.895 2.278-8.474 6.38-4.062 28.82-18.727 54.961-41.29 73.606-16.803 13.886-26.439 34.084-26.439 55.417v27.807c0 9.003-7.361 16.26-16.259 16.26h-63.283c-8.779 0-16.259-7.147-16.259-16.26v-27.811c0-21.527-9.403-41.533-25.798-54.887-27.38-22.301-43.084-55.317-43.084-90.584-.001-57.757 43.136-107.46 100.341-115.615 4.101-.584 6.951-4.382 6.366-8.483-.584-4.101-4.382-6.951-8.483-6.366-64.549 9.202-113.225 65.289-113.224 130.465 0 39.797 17.718 77.052 48.611 102.214 12.882 10.493 20.271 26.259 20.271 43.257v27.811c0 10.811 5.517 20.355 13.882 25.97v45.026c0 12.418 8.232 22.947 19.524 26.424v6.336c-.001 16.262 13.231 29.493 29.494 29.493s29.495-13.231 29.495-29.495v-6.336c11.292-3.477 19.524-14.006 19.524-26.424v-45.025c8.365-5.616 13.882-15.16 13.882-25.97v-27.807c0-16.844 7.652-32.828 20.995-43.854 25.456-21.036 42.001-50.539 46.588-83.075.578-4.102-2.278-7.896-6.38-8.474zm-109.609 266.965c0 7.992-6.502 14.495-14.495 14.495s-14.495-6.502-14.495-14.495v-5.117h28.989v5.117zm6.739-20.117c-50.543 0-40.573.01-43.114-.026-6.737-.267-12.139-5.816-12.139-12.617v-7.226h68.037v7.226c.001 5.966-4.136 12.067-12.784 12.643zm12.785-52.468v17.599h-68.037v-17.599c.5.038 1.65.089 2.377.089h63.283c.727 0 1.876-.051 2.377-.089z"/></g></g></svg>